<svg width="340" height="298" viewBox="0 0 340 298" fill="none" xmlns="http://www.w3.org/2000/svg">
<path fill-rule="evenodd" clip-rule="evenodd" d="M58.1145 297.991C32.0805 275.233 13.6056 245.076 5.15487 211.546C-3.29583 178.016 -1.32045 142.705 10.8174 110.327C22.9553 77.9481 44.6785 50.0408 73.0885 30.3284C101.498 10.616 135.244 0.0360543 169.823 9.19842e-05C204.402 -0.0358704 238.17 10.4739 266.621 30.1271C295.072 49.7804 316.853 77.6424 329.058 109.996C341.263 142.349 343.312 177.655 334.931 211.203C326.55 244.751 308.138 274.945 282.152 297.758L219.941 235.547C233.795 225.175 244.037 210.71 249.217 194.197C254.398 177.684 254.254 159.96 248.806 143.534C243.359 127.107 232.883 112.809 218.862 102.664C204.841 92.519 187.985 87.0399 170.679 87.0024C153.373 86.9649 136.493 92.3708 122.428 102.455C108.363 112.539 97.8257 126.791 92.307 143.194C86.7883 159.597 86.5676 177.32 91.6763 193.855C96.7849 210.391 106.964 224.9 120.774 235.332L58.1145 297.991Z" fill="white"/>
</svg>
